<mxfile host="app.diagrams.net" modified="2021-10-26T00:25:19.619Z" agent="5.0 (Windows NT 10.0; Win64; x64) AppleWebKit/537.36 (KHTML, like Gecko) Chrome/95.0.4638.54 Safari/537.36" etag="uZjD4_GMYaT-fBoOyOKo" version="15.5.9" type="github">
  <diagram id="7unH60g6TPR6wYULpZhF" name="Page-1">
    <mxGraphModel dx="1842" dy="675" grid="1" gridSize="3" guides="1" tooltips="1" connect="1" arrows="1" fold="1" page="1" pageScale="1" pageWidth="850" pageHeight="1100" math="0" shadow="0">
      <root>
        <mxCell id="0" />
        <mxCell id="1" parent="0" />
        <mxCell id="KP2778Xa63cz4GORxrhL-202" style="edgeStyle=orthogonalEdgeStyle;rounded=0;orthogonalLoop=1;jettySize=auto;html=1;exitX=0.186;exitY=1.06;exitDx=0;exitDy=0;exitPerimeter=0;" edge="1" parent="1" source="KP2778Xa63cz4GORxrhL-185" target="KP2778Xa63cz4GORxrhL-200">
          <mxGeometry relative="1" as="geometry">
            <mxPoint x="135" y="240" as="targetPoint" />
            <mxPoint x="143" y="171" as="sourcePoint" />
          </mxGeometry>
        </mxCell>
        <mxCell id="KP2778Xa63cz4GORxrhL-207" style="edgeStyle=orthogonalEdgeStyle;rounded=0;orthogonalLoop=1;jettySize=auto;html=1;entryX=0.5;entryY=0;entryDx=0;entryDy=0;exitX=0.363;exitY=0.975;exitDx=0;exitDy=0;exitPerimeter=0;" edge="1" parent="1" source="KP2778Xa63cz4GORxrhL-185" target="KP2778Xa63cz4GORxrhL-203">
          <mxGeometry relative="1" as="geometry">
            <mxPoint x="195" y="156" as="sourcePoint" />
          </mxGeometry>
        </mxCell>
        <mxCell id="KP2778Xa63cz4GORxrhL-210" style="edgeStyle=orthogonalEdgeStyle;rounded=0;orthogonalLoop=1;jettySize=auto;html=1;entryX=0.5;entryY=0;entryDx=0;entryDy=0;exitX=0.639;exitY=1.05;exitDx=0;exitDy=0;exitPerimeter=0;" edge="1" parent="1" source="KP2778Xa63cz4GORxrhL-185" target="KP2778Xa63cz4GORxrhL-208">
          <mxGeometry relative="1" as="geometry">
            <mxPoint x="282" y="141" as="sourcePoint" />
          </mxGeometry>
        </mxCell>
        <mxCell id="KP2778Xa63cz4GORxrhL-212" style="edgeStyle=orthogonalEdgeStyle;rounded=0;orthogonalLoop=1;jettySize=auto;html=1;entryX=0.5;entryY=0;entryDx=0;entryDy=0;exitX=0.883;exitY=0.985;exitDx=0;exitDy=0;exitPerimeter=0;" edge="1" parent="1" source="KP2778Xa63cz4GORxrhL-185" target="KP2778Xa63cz4GORxrhL-211">
          <mxGeometry relative="1" as="geometry">
            <mxPoint x="357" y="135" as="sourcePoint" />
          </mxGeometry>
        </mxCell>
        <mxCell id="KP2778Xa63cz4GORxrhL-215" style="edgeStyle=orthogonalEdgeStyle;rounded=0;orthogonalLoop=1;jettySize=auto;html=1;exitX=0.044;exitY=1.005;exitDx=0;exitDy=0;entryX=0.5;entryY=0;entryDx=0;entryDy=0;exitPerimeter=0;" edge="1" parent="1" source="KP2778Xa63cz4GORxrhL-185" target="KP2778Xa63cz4GORxrhL-213">
          <mxGeometry relative="1" as="geometry" />
        </mxCell>
        <mxCell id="KP2778Xa63cz4GORxrhL-257" value="( 1,N )" style="edgeStyle=orthogonalEdgeStyle;rounded=0;orthogonalLoop=1;jettySize=auto;html=1;entryX=0;entryY=0.5;entryDx=0;entryDy=0;fontSize=11;startArrow=none;startFill=0;endArrow=none;endFill=0;endSize=24;exitX=1;exitY=0.5;exitDx=0;exitDy=0;" edge="1" parent="1">
          <mxGeometry x="-0.0573" y="-1" relative="1" as="geometry">
            <mxPoint x="365" y="143.5" as="sourcePoint" />
            <mxPoint x="442.5" y="144.5" as="targetPoint" />
            <Array as="points">
              <mxPoint x="440" y="144" />
              <mxPoint x="440" y="145" />
            </Array>
            <mxPoint as="offset" />
          </mxGeometry>
        </mxCell>
        <mxCell id="KP2778Xa63cz4GORxrhL-269" value="(1,1)" style="edgeStyle=orthogonalEdgeStyle;rounded=0;orthogonalLoop=1;jettySize=auto;html=1;exitX=1;exitY=0.5;exitDx=0;exitDy=0;entryX=0;entryY=0.5;entryDx=0;entryDy=0;fontSize=14;startArrow=none;startFill=0;endArrow=none;endFill=0;endSize=24;strokeWidth=1;" edge="1" parent="1" source="KP2778Xa63cz4GORxrhL-185" target="KP2778Xa63cz4GORxrhL-265">
          <mxGeometry relative="1" as="geometry" />
        </mxCell>
        <mxCell id="KP2778Xa63cz4GORxrhL-185" value="Cliente" style="whiteSpace=wrap;html=1;align=center;shadow=0;strokeColor=default;strokeWidth=1;fillColor=none;" vertex="1" parent="1">
          <mxGeometry x="-138" y="123" width="310" height="40" as="geometry" />
        </mxCell>
        <mxCell id="KP2778Xa63cz4GORxrhL-200" value="Nome" style="ellipse;whiteSpace=wrap;html=1;align=center;shadow=0;strokeColor=#000000;strokeWidth=1;fillColor=none;" vertex="1" parent="1">
          <mxGeometry x="-105" y="243" width="51" height="24" as="geometry" />
        </mxCell>
        <mxCell id="KP2778Xa63cz4GORxrhL-203" value="Natividade" style="ellipse;whiteSpace=wrap;html=1;align=center;shadow=0;strokeColor=#000000;strokeWidth=1;fillColor=none;" vertex="1" parent="1">
          <mxGeometry x="-60" y="276" width="69" height="33" as="geometry" />
        </mxCell>
        <mxCell id="KP2778Xa63cz4GORxrhL-208" value="Endereço Residencial" style="ellipse;whiteSpace=wrap;html=1;align=center;shadow=0;strokeColor=#000000;strokeWidth=1;fillColor=none;" vertex="1" parent="1">
          <mxGeometry x="21" y="307" width="80" height="40" as="geometry" />
        </mxCell>
        <mxCell id="KP2778Xa63cz4GORxrhL-211" value="Telefone" style="ellipse;whiteSpace=wrap;html=1;align=center;shadow=0;strokeColor=#000000;strokeWidth=1;fillColor=none;" vertex="1" parent="1">
          <mxGeometry x="102" y="337" width="66" height="30" as="geometry" />
        </mxCell>
        <mxCell id="KP2778Xa63cz4GORxrhL-213" value="CPF" style="ellipse;whiteSpace=wrap;html=1;align=center;fontStyle=4;shadow=0;strokeColor=#000000;strokeWidth=1;fillColor=none;" vertex="1" parent="1">
          <mxGeometry x="-156" y="204" width="63" height="30" as="geometry" />
        </mxCell>
        <mxCell id="KP2778Xa63cz4GORxrhL-214" style="edgeStyle=orthogonalEdgeStyle;rounded=0;orthogonalLoop=1;jettySize=auto;html=1;exitX=0.5;exitY=1;exitDx=0;exitDy=0;" edge="1" parent="1" source="KP2778Xa63cz4GORxrhL-213" target="KP2778Xa63cz4GORxrhL-213">
          <mxGeometry relative="1" as="geometry" />
        </mxCell>
        <mxCell id="KP2778Xa63cz4GORxrhL-216" value="Agência" style="whiteSpace=wrap;html=1;align=center;shadow=0;strokeColor=#000000;strokeWidth=1;fillColor=none;" vertex="1" parent="1">
          <mxGeometry x="885" y="124" width="219" height="40" as="geometry" />
        </mxCell>
        <mxCell id="KP2778Xa63cz4GORxrhL-218" value="Conta" style="whiteSpace=wrap;html=1;align=center;shadow=0;strokeColor=#000000;strokeWidth=1;fillColor=none;" vertex="1" parent="1">
          <mxGeometry x="443.5" y="124" width="100" height="40" as="geometry" />
        </mxCell>
        <mxCell id="KP2778Xa63cz4GORxrhL-256" style="edgeStyle=orthogonalEdgeStyle;rounded=0;orthogonalLoop=1;jettySize=auto;html=1;exitX=0.5;exitY=1;exitDx=0;exitDy=0;entryX=1;entryY=0.5;entryDx=0;entryDy=0;fontSize=11;startArrow=none;startFill=0;endArrow=none;endFill=0;endSize=24;" edge="1" parent="1" source="KP2778Xa63cz4GORxrhL-219" target="KP2778Xa63cz4GORxrhL-250">
          <mxGeometry relative="1" as="geometry" />
        </mxCell>
        <mxCell id="KP2778Xa63cz4GORxrhL-297" style="edgeStyle=orthogonalEdgeStyle;rounded=0;orthogonalLoop=1;jettySize=auto;html=1;exitX=0;exitY=0.5;exitDx=0;exitDy=0;fontSize=14;startArrow=none;startFill=0;endArrow=none;endFill=0;endSize=24;strokeWidth=1;entryX=1;entryY=0.5;entryDx=0;entryDy=0;" edge="1" parent="1" source="KP2778Xa63cz4GORxrhL-219" target="KP2778Xa63cz4GORxrhL-299">
          <mxGeometry relative="1" as="geometry">
            <mxPoint x="405" y="509" as="targetPoint" />
          </mxGeometry>
        </mxCell>
        <mxCell id="KP2778Xa63cz4GORxrhL-305" style="edgeStyle=orthogonalEdgeStyle;rounded=0;orthogonalLoop=1;jettySize=auto;html=1;exitX=1;exitY=0.75;exitDx=0;exitDy=0;entryX=0;entryY=0.5;entryDx=0;entryDy=0;fontSize=14;startArrow=none;startFill=0;endArrow=none;endFill=0;endSize=24;strokeWidth=1;" edge="1" parent="1" source="KP2778Xa63cz4GORxrhL-219" target="KP2778Xa63cz4GORxrhL-300">
          <mxGeometry relative="1" as="geometry" />
        </mxCell>
        <mxCell id="KP2778Xa63cz4GORxrhL-306" style="edgeStyle=orthogonalEdgeStyle;rounded=0;orthogonalLoop=1;jettySize=auto;html=1;exitX=1;exitY=0.25;exitDx=0;exitDy=0;entryX=0;entryY=0.5;entryDx=0;entryDy=0;fontSize=14;startArrow=none;startFill=0;endArrow=none;endFill=0;endSize=24;strokeWidth=1;" edge="1" parent="1" source="KP2778Xa63cz4GORxrhL-219" target="KP2778Xa63cz4GORxrhL-295">
          <mxGeometry relative="1" as="geometry" />
        </mxCell>
        <mxCell id="KP2778Xa63cz4GORxrhL-219" value="transação" style="whiteSpace=wrap;html=1;align=center;shadow=0;strokeColor=#000000;strokeWidth=1;fillColor=none;" vertex="1" parent="1">
          <mxGeometry x="443.5" y="489" width="100" height="40" as="geometry" />
        </mxCell>
        <mxCell id="KP2778Xa63cz4GORxrhL-258" value="(N)" style="edgeStyle=orthogonalEdgeStyle;rounded=0;orthogonalLoop=1;jettySize=auto;html=1;exitX=0.5;exitY=1;exitDx=0;exitDy=0;entryX=0.5;entryY=0;entryDx=0;entryDy=0;fontSize=11;startArrow=none;startFill=0;endArrow=none;endFill=0;endSize=24;" edge="1" parent="1" source="KP2778Xa63cz4GORxrhL-238" target="KP2778Xa63cz4GORxrhL-219">
          <mxGeometry relative="1" as="geometry" />
        </mxCell>
        <mxCell id="KP2778Xa63cz4GORxrhL-238" value="Relationship" style="shape=rhombus;perimeter=rhombusPerimeter;whiteSpace=wrap;html=1;align=center;shadow=0;fontSize=9;strokeColor=#000000;strokeWidth=1;fillColor=none;" vertex="1" parent="1">
          <mxGeometry x="433.5" y="297" width="120" height="60" as="geometry" />
        </mxCell>
        <mxCell id="KP2778Xa63cz4GORxrhL-246" value="&lt;font style=&quot;font-size: 11px&quot;&gt;Depósito&lt;/font&gt;" style="whiteSpace=wrap;html=1;align=center;shadow=0;fontSize=9;strokeColor=#000000;strokeWidth=1;fillColor=none;" vertex="1" parent="1">
          <mxGeometry x="333" y="624" width="100" height="40" as="geometry" />
        </mxCell>
        <mxCell id="KP2778Xa63cz4GORxrhL-247" value="&lt;font style=&quot;font-size: 11px&quot;&gt;Saque&lt;br&gt;&lt;/font&gt;" style="whiteSpace=wrap;html=1;align=center;shadow=0;fontSize=9;strokeColor=#000000;strokeWidth=1;fillColor=none;" vertex="1" parent="1">
          <mxGeometry x="552" y="624" width="100" height="40" as="geometry" />
        </mxCell>
        <mxCell id="KP2778Xa63cz4GORxrhL-250" value="" style="triangle;whiteSpace=wrap;html=1;shadow=0;fontSize=11;strokeColor=#000000;strokeWidth=1;fillColor=none;rotation=-90;" vertex="1" parent="1">
          <mxGeometry x="480" y="525" width="27" height="75" as="geometry" />
        </mxCell>
        <mxCell id="KP2778Xa63cz4GORxrhL-251" value="" style="endArrow=none;html=1;rounded=0;fontSize=11;endSize=24;exitX=0.5;exitY=0;exitDx=0;exitDy=0;entryX=-0.022;entryY=-0.028;entryDx=0;entryDy=0;entryPerimeter=0;" edge="1" parent="1" source="KP2778Xa63cz4GORxrhL-246" target="KP2778Xa63cz4GORxrhL-250">
          <mxGeometry relative="1" as="geometry">
            <mxPoint x="522" y="165" as="sourcePoint" />
            <mxPoint x="627" y="387" as="targetPoint" />
          </mxGeometry>
        </mxCell>
        <mxCell id="KP2778Xa63cz4GORxrhL-254" value="" style="endArrow=none;html=1;rounded=0;fontSize=11;endSize=24;exitX=0.5;exitY=0;exitDx=0;exitDy=0;entryX=-0.141;entryY=1.017;entryDx=0;entryDy=0;entryPerimeter=0;" edge="1" parent="1" source="KP2778Xa63cz4GORxrhL-247" target="KP2778Xa63cz4GORxrhL-250">
          <mxGeometry relative="1" as="geometry">
            <mxPoint x="563" y="405" as="sourcePoint" />
            <mxPoint x="625.4000000000001" y="363.59400000000005" as="targetPoint" />
          </mxGeometry>
        </mxCell>
        <mxCell id="KP2778Xa63cz4GORxrhL-260" value="(N)" style="edgeStyle=orthogonalEdgeStyle;rounded=0;orthogonalLoop=1;jettySize=auto;html=1;exitX=0;exitY=0.5;exitDx=0;exitDy=0;entryX=1;entryY=0.5;entryDx=0;entryDy=0;fontSize=11;startArrow=none;startFill=0;endArrow=none;endFill=0;endSize=24;" edge="1" parent="1" source="KP2778Xa63cz4GORxrhL-259" target="KP2778Xa63cz4GORxrhL-218">
          <mxGeometry x="-0.1867" relative="1" as="geometry">
            <Array as="points">
              <mxPoint x="600" y="144" />
              <mxPoint x="600" y="143" />
            </Array>
            <mxPoint as="offset" />
          </mxGeometry>
        </mxCell>
        <mxCell id="KP2778Xa63cz4GORxrhL-259" value="Relationship" style="shape=rhombus;perimeter=rhombusPerimeter;whiteSpace=wrap;html=1;align=center;shadow=0;fontSize=11;strokeColor=#000000;strokeWidth=1;fillColor=none;" vertex="1" parent="1">
          <mxGeometry x="633" y="114" width="120" height="60" as="geometry" />
        </mxCell>
        <mxCell id="KP2778Xa63cz4GORxrhL-261" value="&lt;font style=&quot;font-size: 12px&quot;&gt;(1,1)&lt;/font&gt;" style="endArrow=none;html=1;rounded=0;fontSize=9;entryX=0;entryY=0.5;entryDx=0;entryDy=0;exitX=1;exitY=0.5;exitDx=0;exitDy=0;strokeWidth=1;" edge="1" parent="1" source="KP2778Xa63cz4GORxrhL-259" target="KP2778Xa63cz4GORxrhL-216">
          <mxGeometry x="-0.0796" y="-2" relative="1" as="geometry">
            <mxPoint x="759" y="146" as="sourcePoint" />
            <mxPoint x="895.5" y="174" as="targetPoint" />
            <Array as="points" />
            <mxPoint as="offset" />
          </mxGeometry>
        </mxCell>
        <mxCell id="KP2778Xa63cz4GORxrhL-262" value="&lt;font style=&quot;font-size: 12px&quot;&gt;(1,1)&lt;/font&gt;" style="endArrow=none;html=1;rounded=0;fontSize=9;entryX=0.5;entryY=0;entryDx=0;entryDy=0;exitX=0.5;exitY=1;exitDx=0;exitDy=0;strokeWidth=1;" edge="1" parent="1" source="KP2778Xa63cz4GORxrhL-218" target="KP2778Xa63cz4GORxrhL-238">
          <mxGeometry x="-0.0796" y="-2" relative="1" as="geometry">
            <mxPoint x="504" y="204" as="sourcePoint" />
            <mxPoint x="504" y="295" as="targetPoint" />
            <Array as="points" />
            <mxPoint as="offset" />
          </mxGeometry>
        </mxCell>
        <mxCell id="KP2778Xa63cz4GORxrhL-263" value="&lt;font style=&quot;font-size: 14px&quot;&gt;t&lt;/font&gt;" style="text;html=1;strokeColor=none;fillColor=none;align=center;verticalAlign=middle;whiteSpace=wrap;rounded=0;shadow=0;fontSize=12;" vertex="1" parent="1">
          <mxGeometry x="493.5" y="540" width="60" height="30" as="geometry" />
        </mxCell>
        <mxCell id="KP2778Xa63cz4GORxrhL-265" value="Relationship" style="shape=rhombus;perimeter=rhombusPerimeter;whiteSpace=wrap;html=1;align=center;shadow=0;fontSize=14;strokeColor=#000000;strokeWidth=1;fillColor=none;" vertex="1" parent="1">
          <mxGeometry x="246" y="113" width="120" height="60" as="geometry" />
        </mxCell>
        <mxCell id="KP2778Xa63cz4GORxrhL-275" style="edgeStyle=orthogonalEdgeStyle;rounded=0;orthogonalLoop=1;jettySize=auto;html=1;exitX=0.5;exitY=0;exitDx=0;exitDy=0;fontSize=14;startArrow=none;startFill=0;endArrow=none;endFill=0;endSize=24;strokeWidth=1;entryX=0.052;entryY=1.055;entryDx=0;entryDy=0;entryPerimeter=0;" edge="1" parent="1" source="KP2778Xa63cz4GORxrhL-272" target="KP2778Xa63cz4GORxrhL-216">
          <mxGeometry relative="1" as="geometry">
            <mxPoint x="896" y="192" as="targetPoint" />
          </mxGeometry>
        </mxCell>
        <mxCell id="KP2778Xa63cz4GORxrhL-272" value="&lt;u&gt;Código&lt;br&gt;&lt;/u&gt;" style="ellipse;whiteSpace=wrap;html=1;align=center;shadow=0;fontSize=14;strokeColor=#000000;strokeWidth=1;fillColor=none;" vertex="1" parent="1">
          <mxGeometry x="870" y="288" width="51" height="45" as="geometry" />
        </mxCell>
        <mxCell id="KP2778Xa63cz4GORxrhL-277" style="edgeStyle=orthogonalEdgeStyle;rounded=0;orthogonalLoop=1;jettySize=auto;html=1;exitX=0.5;exitY=0;exitDx=0;exitDy=0;entryX=0.333;entryY=1.055;entryDx=0;entryDy=0;entryPerimeter=0;fontSize=14;startArrow=none;startFill=0;endArrow=none;endFill=0;endSize=24;strokeWidth=1;" edge="1" parent="1" source="KP2778Xa63cz4GORxrhL-276" target="KP2778Xa63cz4GORxrhL-216">
          <mxGeometry relative="1" as="geometry" />
        </mxCell>
        <mxCell id="KP2778Xa63cz4GORxrhL-276" value="Nome" style="ellipse;whiteSpace=wrap;html=1;align=center;shadow=0;fontSize=14;strokeColor=#000000;strokeWidth=1;fillColor=none;" vertex="1" parent="1">
          <mxGeometry x="933" y="261" width="48" height="43" as="geometry" />
        </mxCell>
        <mxCell id="KP2778Xa63cz4GORxrhL-279" style="edgeStyle=orthogonalEdgeStyle;rounded=0;orthogonalLoop=1;jettySize=auto;html=1;exitX=0.5;exitY=0;exitDx=0;exitDy=0;entryX=0.574;entryY=1.075;entryDx=0;entryDy=0;entryPerimeter=0;fontSize=14;startArrow=none;startFill=0;endArrow=none;endFill=0;endSize=24;strokeWidth=1;" edge="1" parent="1" source="KP2778Xa63cz4GORxrhL-278" target="KP2778Xa63cz4GORxrhL-216">
          <mxGeometry relative="1" as="geometry" />
        </mxCell>
        <mxCell id="KP2778Xa63cz4GORxrhL-278" value="Endereço" style="ellipse;whiteSpace=wrap;html=1;align=center;shadow=0;fontSize=14;strokeColor=#000000;strokeWidth=1;fillColor=none;" vertex="1" parent="1">
          <mxGeometry x="978" y="211" width="66" height="59" as="geometry" />
        </mxCell>
        <mxCell id="KP2778Xa63cz4GORxrhL-281" style="edgeStyle=orthogonalEdgeStyle;rounded=0;orthogonalLoop=1;jettySize=auto;html=1;exitX=0.5;exitY=0;exitDx=0;exitDy=0;entryX=0.87;entryY=1.075;entryDx=0;entryDy=0;entryPerimeter=0;fontSize=14;startArrow=none;startFill=0;endArrow=none;endFill=0;endSize=24;strokeWidth=1;" edge="1" parent="1" source="KP2778Xa63cz4GORxrhL-280" target="KP2778Xa63cz4GORxrhL-216">
          <mxGeometry relative="1" as="geometry" />
        </mxCell>
        <mxCell id="KP2778Xa63cz4GORxrhL-280" value="Data&lt;br&gt;Criação" style="ellipse;whiteSpace=wrap;html=1;align=center;shadow=0;fontSize=14;strokeColor=#000000;strokeWidth=1;fillColor=none;" vertex="1" parent="1">
          <mxGeometry x="1047" y="188" width="57" height="53" as="geometry" />
        </mxCell>
        <mxCell id="KP2778Xa63cz4GORxrhL-283" style="edgeStyle=orthogonalEdgeStyle;rounded=0;orthogonalLoop=1;jettySize=auto;html=1;exitX=1;exitY=0.5;exitDx=0;exitDy=0;entryX=0.137;entryY=1.095;entryDx=0;entryDy=0;entryPerimeter=0;fontSize=14;startArrow=none;startFill=0;endArrow=none;endFill=0;endSize=24;strokeWidth=1;" edge="1" parent="1" source="KP2778Xa63cz4GORxrhL-282" target="KP2778Xa63cz4GORxrhL-218">
          <mxGeometry relative="1" as="geometry" />
        </mxCell>
        <mxCell id="KP2778Xa63cz4GORxrhL-282" value="Código" style="ellipse;whiteSpace=wrap;html=1;align=center;fontStyle=4;shadow=0;fontSize=14;strokeColor=#000000;strokeWidth=1;fillColor=none;" vertex="1" parent="1">
          <mxGeometry x="363" y="188" width="54" height="55" as="geometry" />
        </mxCell>
        <mxCell id="KP2778Xa63cz4GORxrhL-286" style="edgeStyle=orthogonalEdgeStyle;rounded=0;orthogonalLoop=1;jettySize=auto;html=1;exitX=0;exitY=0.5;exitDx=0;exitDy=0;entryX=0.849;entryY=1.095;entryDx=0;entryDy=0;entryPerimeter=0;fontSize=14;startArrow=none;startFill=0;endArrow=none;endFill=0;endSize=24;strokeWidth=1;" edge="1" parent="1" source="KP2778Xa63cz4GORxrhL-284" target="KP2778Xa63cz4GORxrhL-218">
          <mxGeometry relative="1" as="geometry" />
        </mxCell>
        <mxCell id="KP2778Xa63cz4GORxrhL-284" value="Agência" style="ellipse;whiteSpace=wrap;html=1;align=center;shadow=0;fontSize=14;strokeColor=#000000;strokeWidth=1;fillColor=none;" vertex="1" parent="1">
          <mxGeometry x="567" y="189.75" width="57" height="51.5" as="geometry" />
        </mxCell>
        <mxCell id="KP2778Xa63cz4GORxrhL-288" style="edgeStyle=orthogonalEdgeStyle;rounded=0;orthogonalLoop=1;jettySize=auto;html=1;exitX=1;exitY=0.5;exitDx=0;exitDy=0;entryX=0.137;entryY=-0.005;entryDx=0;entryDy=0;entryPerimeter=0;fontSize=14;startArrow=none;startFill=0;endArrow=none;endFill=0;endSize=24;strokeWidth=1;" edge="1" parent="1" source="KP2778Xa63cz4GORxrhL-287" target="KP2778Xa63cz4GORxrhL-218">
          <mxGeometry relative="1" as="geometry" />
        </mxCell>
        <mxCell id="KP2778Xa63cz4GORxrhL-287" value="Dono" style="ellipse;whiteSpace=wrap;html=1;align=center;shadow=0;fontSize=14;strokeColor=#000000;strokeWidth=1;fillColor=none;" vertex="1" parent="1">
          <mxGeometry x="363" y="48" width="57" height="54" as="geometry" />
        </mxCell>
        <mxCell id="KP2778Xa63cz4GORxrhL-291" style="edgeStyle=orthogonalEdgeStyle;rounded=0;orthogonalLoop=1;jettySize=auto;html=1;exitX=0.5;exitY=1;exitDx=0;exitDy=0;entryX=0.5;entryY=0;entryDx=0;entryDy=0;fontSize=14;startArrow=none;startFill=0;endArrow=none;endFill=0;endSize=24;strokeWidth=1;" edge="1" parent="1" source="KP2778Xa63cz4GORxrhL-290" target="KP2778Xa63cz4GORxrhL-218">
          <mxGeometry relative="1" as="geometry" />
        </mxCell>
        <mxCell id="KP2778Xa63cz4GORxrhL-290" value="Saldo" style="ellipse;whiteSpace=wrap;html=1;align=center;shadow=0;fontSize=14;strokeColor=#000000;strokeWidth=1;fillColor=none;" vertex="1" parent="1">
          <mxGeometry x="468" y="48" width="51" height="46" as="geometry" />
        </mxCell>
        <mxCell id="KP2778Xa63cz4GORxrhL-294" style="edgeStyle=orthogonalEdgeStyle;rounded=0;orthogonalLoop=1;jettySize=auto;html=1;exitX=0;exitY=0.5;exitDx=0;exitDy=0;entryX=0.841;entryY=0.015;entryDx=0;entryDy=0;entryPerimeter=0;fontSize=14;startArrow=none;startFill=0;endArrow=none;endFill=0;endSize=24;strokeWidth=1;" edge="1" parent="1" source="KP2778Xa63cz4GORxrhL-292" target="KP2778Xa63cz4GORxrhL-218">
          <mxGeometry relative="1" as="geometry" />
        </mxCell>
        <mxCell id="KP2778Xa63cz4GORxrhL-292" value="Tipo" style="ellipse;whiteSpace=wrap;html=1;align=center;shadow=0;fontSize=14;strokeColor=#000000;strokeWidth=1;fillColor=none;" vertex="1" parent="1">
          <mxGeometry x="570" y="52" width="51" height="46" as="geometry" />
        </mxCell>
        <mxCell id="KP2778Xa63cz4GORxrhL-295" value="Tipo" style="ellipse;whiteSpace=wrap;html=1;align=center;shadow=0;fontSize=14;strokeColor=#000000;strokeWidth=1;fillColor=none;" vertex="1" parent="1">
          <mxGeometry x="651" y="393" width="51" height="37" as="geometry" />
        </mxCell>
        <mxCell id="KP2778Xa63cz4GORxrhL-299" value="Conta &lt;br&gt;Origem" style="ellipse;whiteSpace=wrap;html=1;align=center;fontStyle=4;shadow=0;fontSize=14;strokeColor=#000000;strokeWidth=1;fillColor=none;" vertex="1" parent="1">
          <mxGeometry x="333" y="480" width="60" height="58" as="geometry" />
        </mxCell>
        <mxCell id="KP2778Xa63cz4GORxrhL-300" value="Valor" style="ellipse;whiteSpace=wrap;html=1;align=center;shadow=0;fontSize=14;strokeColor=#000000;strokeWidth=1;fillColor=none;" vertex="1" parent="1">
          <mxGeometry x="651" y="531" width="54" height="48" as="geometry" />
        </mxCell>
      </root>
    </mxGraphModel>
  </diagram>
</mxfile>
